<mxfile host="app.diagrams.net" agent="Mozilla/5.0 (Windows NT 10.0; Win64; x64) AppleWebKit/537.36 (KHTML, like Gecko) Chrome/137.0.0.0 Safari/537.36" version="27.1.6">
  <diagram name="Page-1" id="dUOfwVzarIVciS-LY-K8">
    <mxGraphModel dx="1603" dy="811" grid="1" gridSize="10" guides="1" tooltips="1" connect="1" arrows="1" fold="1" page="1" pageScale="1" pageWidth="827" pageHeight="1169" math="0" shadow="0">
      <root>
        <mxCell id="0" />
        <mxCell id="1" parent="0" />
        <mxCell id="RCVYIjFz19-FcPFTiun2-4" value="" style="rounded=1;whiteSpace=wrap;html=1;" vertex="1" parent="1">
          <mxGeometry x="50" y="50" width="160" height="440" as="geometry" />
        </mxCell>
        <mxCell id="RCVYIjFz19-FcPFTiun2-5" value="&lt;b style=&quot;background-color: light-dark(#ffffff, var(--ge-dark-color, #121212));&quot;&gt;SOURCES&lt;/b&gt;" style="text;strokeColor=none;align=center;fillColor=none;html=1;verticalAlign=middle;whiteSpace=wrap;rounded=0;" vertex="1" parent="1">
          <mxGeometry x="90" y="20" width="60" height="30" as="geometry" />
        </mxCell>
        <mxCell id="RCVYIjFz19-FcPFTiun2-6" value="API" style="rounded=0;whiteSpace=wrap;html=1;" vertex="1" parent="1">
          <mxGeometry x="70" y="110" width="120" height="30" as="geometry" />
        </mxCell>
        <mxCell id="RCVYIjFz19-FcPFTiun2-18" style="edgeStyle=orthogonalEdgeStyle;rounded=0;orthogonalLoop=1;jettySize=auto;html=1;exitX=1;exitY=0.5;exitDx=0;exitDy=0;exitPerimeter=0;entryX=0;entryY=0.5;entryDx=0;entryDy=0;" edge="1" parent="1" source="RCVYIjFz19-FcPFTiun2-8" target="RCVYIjFz19-FcPFTiun2-12">
          <mxGeometry relative="1" as="geometry" />
        </mxCell>
        <mxCell id="RCVYIjFz19-FcPFTiun2-8" value="TRANSACTIONAL SYSTEM&lt;div&gt;DB/SAP&lt;/div&gt;" style="shape=cylinder3;whiteSpace=wrap;html=1;boundedLbl=1;backgroundOutline=1;size=15;" vertex="1" parent="1">
          <mxGeometry x="70" y="200" width="130" height="90" as="geometry" />
        </mxCell>
        <mxCell id="RCVYIjFz19-FcPFTiun2-20" style="edgeStyle=orthogonalEdgeStyle;rounded=0;orthogonalLoop=1;jettySize=auto;html=1;exitX=1;exitY=0.5;exitDx=0;exitDy=0;entryX=0;entryY=0.5;entryDx=0;entryDy=0;" edge="1" parent="1" source="RCVYIjFz19-FcPFTiun2-9" target="RCVYIjFz19-FcPFTiun2-12">
          <mxGeometry relative="1" as="geometry" />
        </mxCell>
        <mxCell id="RCVYIjFz19-FcPFTiun2-9" value="FILES" style="rounded=1;whiteSpace=wrap;html=1;" vertex="1" parent="1">
          <mxGeometry x="75" y="370" width="120" height="60" as="geometry" />
        </mxCell>
        <mxCell id="RCVYIjFz19-FcPFTiun2-10" value="" style="endArrow=classic;html=1;rounded=0;" edge="1" parent="1">
          <mxGeometry width="50" height="50" relative="1" as="geometry">
            <mxPoint x="195" y="124.41" as="sourcePoint" />
            <mxPoint x="290" y="124" as="targetPoint" />
          </mxGeometry>
        </mxCell>
        <mxCell id="RCVYIjFz19-FcPFTiun2-22" style="edgeStyle=orthogonalEdgeStyle;rounded=0;orthogonalLoop=1;jettySize=auto;html=1;exitX=1;exitY=0.5;exitDx=0;exitDy=0;entryX=0.5;entryY=0;entryDx=0;entryDy=0;" edge="1" parent="1" source="RCVYIjFz19-FcPFTiun2-11" target="RCVYIjFz19-FcPFTiun2-12">
          <mxGeometry relative="1" as="geometry" />
        </mxCell>
        <mxCell id="RCVYIjFz19-FcPFTiun2-11" value="KAFKA" style="rounded=1;whiteSpace=wrap;html=1;" vertex="1" parent="1">
          <mxGeometry x="293" y="95" width="120" height="60" as="geometry" />
        </mxCell>
        <mxCell id="RCVYIjFz19-FcPFTiun2-12" value="DATA LAKE" style="rounded=1;whiteSpace=wrap;html=1;" vertex="1" parent="1">
          <mxGeometry x="390" y="270" width="120" height="60" as="geometry" />
        </mxCell>
        <mxCell id="RCVYIjFz19-FcPFTiun2-13" value="&lt;b&gt;Storage Layer&lt;/b&gt;&lt;div&gt;1. Landing Zone&lt;/div&gt;&lt;div&gt;2. Raw Zone&lt;/div&gt;&lt;div&gt;3. Curated Zone&lt;/div&gt;&lt;div&gt;3. Enriched Zone&lt;/div&gt;&lt;div&gt;&lt;br&gt;&lt;/div&gt;" style="text;strokeColor=none;align=center;fillColor=none;html=1;verticalAlign=middle;whiteSpace=wrap;rounded=0;" vertex="1" parent="1">
          <mxGeometry x="376.5" y="385" width="147" height="30" as="geometry" />
        </mxCell>
        <mxCell id="RCVYIjFz19-FcPFTiun2-21" value="&lt;b&gt;CDC&lt;/b&gt;" style="text;html=1;align=center;verticalAlign=middle;whiteSpace=wrap;rounded=0;" vertex="1" parent="1">
          <mxGeometry x="233" y="220" width="60" height="30" as="geometry" />
        </mxCell>
        <mxCell id="RCVYIjFz19-FcPFTiun2-23" value="&lt;b&gt;Kafka GCS/S3 Sink Connectors&lt;/b&gt;" style="text;html=1;align=center;verticalAlign=middle;whiteSpace=wrap;rounded=0;" vertex="1" parent="1">
          <mxGeometry x="383" y="190" width="60" height="30" as="geometry" />
        </mxCell>
        <mxCell id="RCVYIjFz19-FcPFTiun2-25" value="" style="rounded=1;whiteSpace=wrap;html=1;" vertex="1" parent="1">
          <mxGeometry x="560" y="50" width="210" height="450" as="geometry" />
        </mxCell>
        <mxCell id="RCVYIjFz19-FcPFTiun2-26" value="&lt;b style=&quot;background-color: light-dark(#ffffff, var(--ge-dark-color, #121212));&quot;&gt;PROCESSING&lt;/b&gt;" style="text;strokeColor=none;align=center;fillColor=none;html=1;verticalAlign=middle;whiteSpace=wrap;rounded=0;" vertex="1" parent="1">
          <mxGeometry x="620" y="20" width="60" height="30" as="geometry" />
        </mxCell>
        <mxCell id="RCVYIjFz19-FcPFTiun2-27" style="edgeStyle=orthogonalEdgeStyle;rounded=0;orthogonalLoop=1;jettySize=auto;html=1;exitX=1;exitY=0.5;exitDx=0;exitDy=0;entryX=-0.003;entryY=0.166;entryDx=0;entryDy=0;entryPerimeter=0;" edge="1" parent="1" source="RCVYIjFz19-FcPFTiun2-11" target="RCVYIjFz19-FcPFTiun2-25">
          <mxGeometry relative="1" as="geometry" />
        </mxCell>
        <mxCell id="RCVYIjFz19-FcPFTiun2-28" value="METRICS SET 1" style="rounded=1;whiteSpace=wrap;html=1;" vertex="1" parent="1">
          <mxGeometry x="610" y="112.5" width="120" height="25" as="geometry" />
        </mxCell>
        <mxCell id="RCVYIjFz19-FcPFTiun2-29" style="edgeStyle=orthogonalEdgeStyle;rounded=0;orthogonalLoop=1;jettySize=auto;html=1;exitX=1;exitY=0.5;exitDx=0;exitDy=0;entryX=0.002;entryY=0.557;entryDx=0;entryDy=0;entryPerimeter=0;" edge="1" parent="1" source="RCVYIjFz19-FcPFTiun2-12" target="RCVYIjFz19-FcPFTiun2-25">
          <mxGeometry relative="1" as="geometry" />
        </mxCell>
        <mxCell id="RCVYIjFz19-FcPFTiun2-31" value="METRICS SET 2" style="rounded=1;whiteSpace=wrap;html=1;" vertex="1" parent="1">
          <mxGeometry x="610" y="290" width="120" height="25" as="geometry" />
        </mxCell>
        <mxCell id="RCVYIjFz19-FcPFTiun2-36" style="edgeStyle=orthogonalEdgeStyle;rounded=0;orthogonalLoop=1;jettySize=auto;html=1;exitX=0.5;exitY=0;exitDx=0;exitDy=0;entryX=0.5;entryY=1;entryDx=0;entryDy=0;" edge="1" parent="1" source="RCVYIjFz19-FcPFTiun2-32" target="RCVYIjFz19-FcPFTiun2-31">
          <mxGeometry relative="1" as="geometry" />
        </mxCell>
        <mxCell id="RCVYIjFz19-FcPFTiun2-32" value="Business Logics" style="rounded=1;whiteSpace=wrap;html=1;" vertex="1" parent="1">
          <mxGeometry x="610" y="340" width="120" height="25" as="geometry" />
        </mxCell>
        <mxCell id="RCVYIjFz19-FcPFTiun2-41" style="edgeStyle=orthogonalEdgeStyle;rounded=0;orthogonalLoop=1;jettySize=auto;html=1;exitX=0.5;exitY=0;exitDx=0;exitDy=0;entryX=0.5;entryY=1;entryDx=0;entryDy=0;" edge="1" parent="1" source="RCVYIjFz19-FcPFTiun2-37" target="RCVYIjFz19-FcPFTiun2-32">
          <mxGeometry relative="1" as="geometry" />
        </mxCell>
        <mxCell id="RCVYIjFz19-FcPFTiun2-37" value="Dimensional Attributes" style="rounded=1;whiteSpace=wrap;html=1;" vertex="1" parent="1">
          <mxGeometry x="610" y="390" width="120" height="40" as="geometry" />
        </mxCell>
        <mxCell id="RCVYIjFz19-FcPFTiun2-42" value="&lt;font style=&quot;font-size: 14px;&quot;&gt;Spark Streaming / Flink&lt;/font&gt;" style="text;html=1;align=center;verticalAlign=middle;whiteSpace=wrap;rounded=0;" vertex="1" parent="1">
          <mxGeometry x="640" y="155" width="60" height="30" as="geometry" />
        </mxCell>
        <mxCell id="RCVYIjFz19-FcPFTiun2-43" value="&lt;font style=&quot;font-size: 14px;&quot;&gt;Spark / Open table format&amp;nbsp;&lt;/font&gt;" style="text;html=1;align=center;verticalAlign=middle;whiteSpace=wrap;rounded=0;" vertex="1" parent="1">
          <mxGeometry x="620" y="440" width="90" height="30" as="geometry" />
        </mxCell>
        <mxCell id="RCVYIjFz19-FcPFTiun2-46" value="Orchestration / CICD" style="rounded=1;whiteSpace=wrap;html=1;" vertex="1" parent="1">
          <mxGeometry x="610" y="530" width="120" height="60" as="geometry" />
        </mxCell>
        <mxCell id="RCVYIjFz19-FcPFTiun2-47" value="" style="rounded=1;whiteSpace=wrap;html=1;" vertex="1" parent="1">
          <mxGeometry x="1000" y="50" width="190" height="450" as="geometry" />
        </mxCell>
        <mxCell id="RCVYIjFz19-FcPFTiun2-48" value="&lt;span style=&quot;background-color: rgb(255, 255, 255);&quot;&gt;&lt;b&gt;PRESENTATION&lt;/b&gt;&lt;/span&gt;" style="text;strokeColor=none;align=center;fillColor=none;html=1;verticalAlign=middle;whiteSpace=wrap;rounded=0;" vertex="1" parent="1">
          <mxGeometry x="1070" y="20" width="60" height="30" as="geometry" />
        </mxCell>
        <mxCell id="RCVYIjFz19-FcPFTiun2-50" value="Near Rile Time Dashboards" style="rounded=1;whiteSpace=wrap;html=1;" vertex="1" parent="1">
          <mxGeometry x="1035" y="95" width="120" height="60" as="geometry" />
        </mxCell>
        <mxCell id="RCVYIjFz19-FcPFTiun2-51" style="edgeStyle=orthogonalEdgeStyle;rounded=0;orthogonalLoop=1;jettySize=auto;html=1;exitX=1;exitY=0.5;exitDx=0;exitDy=0;entryX=-0.017;entryY=0.167;entryDx=0;entryDy=0;entryPerimeter=0;" edge="1" parent="1" source="RCVYIjFz19-FcPFTiun2-28" target="RCVYIjFz19-FcPFTiun2-47">
          <mxGeometry relative="1" as="geometry" />
        </mxCell>
        <mxCell id="RCVYIjFz19-FcPFTiun2-52" style="edgeStyle=orthogonalEdgeStyle;rounded=0;orthogonalLoop=1;jettySize=auto;html=1;exitX=1;exitY=0.5;exitDx=0;exitDy=0;entryX=0.023;entryY=0.466;entryDx=0;entryDy=0;entryPerimeter=0;" edge="1" parent="1" source="RCVYIjFz19-FcPFTiun2-31" target="RCVYIjFz19-FcPFTiun2-47">
          <mxGeometry relative="1" as="geometry" />
        </mxCell>
        <mxCell id="RCVYIjFz19-FcPFTiun2-53" value="DWH" style="rounded=1;whiteSpace=wrap;html=1;" vertex="1" parent="1">
          <mxGeometry x="1040" y="230" width="120" height="60" as="geometry" />
        </mxCell>
        <mxCell id="RCVYIjFz19-FcPFTiun2-54" value="Foundational + Consumption Layer" style="text;html=1;align=center;verticalAlign=middle;whiteSpace=wrap;rounded=0;" vertex="1" parent="1">
          <mxGeometry x="1052.5" y="300" width="95" height="50" as="geometry" />
        </mxCell>
        <mxCell id="RCVYIjFz19-FcPFTiun2-61" value="" style="shape=flexArrow;endArrow=classic;startArrow=classic;html=1;rounded=0;" edge="1" parent="1">
          <mxGeometry width="100" height="100" relative="1" as="geometry">
            <mxPoint x="383" y="620" as="sourcePoint" />
            <mxPoint x="1200" y="620" as="targetPoint" />
          </mxGeometry>
        </mxCell>
        <mxCell id="RCVYIjFz19-FcPFTiun2-62" value="&lt;font style=&quot;font-size: 15px;&quot;&gt;Error Handling and Monitoring&lt;/font&gt;" style="text;html=1;align=center;verticalAlign=middle;whiteSpace=wrap;rounded=0;" vertex="1" parent="1">
          <mxGeometry x="570" y="650" width="220" height="30" as="geometry" />
        </mxCell>
        <mxCell id="RCVYIjFz19-FcPFTiun2-63" value="&lt;font style=&quot;font-size: 14px;&quot;&gt;Data Lake Enriched layer&lt;/font&gt;" style="rounded=1;whiteSpace=wrap;html=1;" vertex="1" parent="1">
          <mxGeometry x="1040" y="410" width="120" height="60" as="geometry" />
        </mxCell>
      </root>
    </mxGraphModel>
  </diagram>
</mxfile>
